<svg xmlns="http://www.w3.org/2000/svg" xmlns:xlink="http://www.w3.org/1999/xlink" width="500" zoomAndPan="magnify" viewBox="0 0 375 374.999991" height="500" preserveAspectRatio="xMidYMid meet" version="1.2"><defs><clipPath id="b2fd07f601"><path d="M 58.472656 116.929688 L 104 116.929688 L 104 257.929688 L 58.472656 257.929688 Z M 58.472656 116.929688 "/></clipPath><clipPath id="dbf1321c57"><path d="M 58.472656 116.929688 L 212.972656 116.929688 L 212.972656 257.929688 L 58.472656 257.929688 Z M 58.472656 116.929688 "/></clipPath><clipPath id="a0da12f478"><path d="M 58.582031 21.523438 L 323.972656 21.523438 L 323.972656 353.34375 L 58.582031 353.34375 Z M 58.582031 21.523438 "/></clipPath></defs><g id="4764b5755f"><rect x="0" width="375" y="0" height="374.999991" style="fill:#ffffff;fill-opacity:1;stroke:none;"/><rect x="0" width="375" y="0" height="374.999991" style="fill:#000000;fill-opacity:1;stroke:none;"/><g clip-rule="nonzero" clip-path="url(#b2fd07f601)"><path style=" stroke:none;fill-rule:nonzero;fill:#ffffff;fill-opacity:1;" d="M 58.472656 176.992188 L 58.472656 257.882812 L 103.710938 257.882812 C 103.710938 254.640625 103.710938 251.394531 103.710938 248.148438 C 103.710938 235.820312 104.789062 230.675781 94.476562 221.863281 C 80.699219 210.082031 65.703125 194.75 58.472656 176.992188 Z M 103.710938 128.984375 L 103.710938 116.976562 L 58.472656 116.976562 L 58.472656 151.605469 C 58.472656 170.375 71.175781 172.164062 87.105469 159.96875 C 97.507812 152.003906 103.710938 142.621094 103.710938 128.984375 Z M 103.710938 128.984375 "/></g><g clip-rule="nonzero" clip-path="url(#dbf1321c57)"><path style=" stroke:none;fill-rule:nonzero;fill:#ffffff;fill-opacity:1;" d="M 102.621094 215.515625 C 115.859375 225.988281 129.097656 236.457031 142.335938 246.929688 L 146.113281 249.914062 C 151.210938 253.949219 154.132812 255.984375 157.078125 256.914062 C 160.027344 257.839844 163.828125 257.882812 170.542969 257.882812 L 212.5625 257.882812 L 131.144531 191.734375 C 130.828125 191.484375 130.53125 191.199219 130.269531 190.875 C 128.367188 188.535156 128.722656 185.097656 131.058594 183.195312 L 212.5625 116.976562 L 170.542969 116.976562 C 163.828125 116.976562 160.027344 117.019531 157.078125 117.945312 C 154.132812 118.871094 151.210938 120.914062 146.113281 124.945312 L 142.335938 127.929688 C 129.097656 138.402344 115.859375 148.871094 102.621094 159.339844 C 90.453125 168.96875 69.738281 185.679688 58.472656 166.160156 C 61.066406 183.84375 82.472656 199.578125 102.621094 215.515625 Z M 102.621094 215.515625 "/></g><g clip-rule="nonzero" clip-path="url(#a0da12f478)"><path style=" stroke:none;fill-rule:nonzero;fill:#ffffff;fill-opacity:1;" d="M 113.640625 331.085938 C 192.980469 331.085938 257.296875 266.773438 257.296875 187.433594 C 257.296875 108.09375 192.980469 43.78125 113.640625 43.78125 C 94.132812 43.78125 75.539062 47.675781 58.578125 54.71875 C 86.3125 33.878906 120.789062 21.523438 158.152344 21.523438 C 249.785156 21.523438 324.066406 95.804688 324.066406 187.433594 C 324.066406 279.066406 249.785156 353.34375 158.152344 353.34375 C 120.789062 353.34375 86.3125 340.992188 58.578125 320.148438 C 75.539062 327.195312 94.132812 331.085938 113.640625 331.085938 "/></g><path style=" stroke:none;fill-rule:nonzero;fill:#ffffff;fill-opacity:1;" d="M 158.152344 279.148438 C 208.804688 279.148438 249.867188 238.085938 249.867188 187.433594 C 249.867188 136.78125 208.804688 95.71875 158.152344 95.71875 C 141.332031 95.71875 125.570312 100.25 112.015625 108.15625 L 83.257812 79.398438 C 101.34375 69.359375 121.773438 64.011719 143.027344 64.011719 C 176 64.011719 206.992188 76.851562 230.300781 100.160156 C 253.613281 123.472656 266.453125 154.46875 266.453125 187.433594 C 266.453125 206.539062 262.132812 224.980469 253.96875 241.648438 L 253.953125 241.679688 C 253.246094 243.117188 252.519531 244.546875 251.753906 245.957031 L 251.769531 245.902344 C 246.128906 256.363281 238.941406 266.066406 230.300781 274.707031 C 206.992188 298.015625 176 310.855469 143.027344 310.855469 C 121.773438 310.855469 101.34375 305.511719 83.257812 295.46875 L 112.015625 266.710938 C 125.570312 274.617188 141.332031 279.148438 158.152344 279.148438 "/></g></svg>