<svg xmlns="http://www.w3.org/2000/svg" xmlns:xlink="http://www.w3.org/1999/xlink" width="500" zoomAndPan="magnify" viewBox="0 0 375 149.999998" height="200" preserveAspectRatio="xMidYMid meet" version="1.2"><defs/><g id="8088f98607"><g style="fill:#ffdf20;fill-opacity:1;"><g transform="translate(8.697868, 95.989344)"><path style="stroke:none" d="M 48.96875 -5.65625 C 49.988281 -4.070312 50.851562 -2.832031 51.5625 -1.9375 C 52.28125 -1.050781 52.921875 -0.40625 53.484375 0 L 32.09375 0 L 22 -15.734375 L 20.171875 -13.828125 L 20.171875 -6.34375 C 20.171875 -4.351562 20.285156 -2.882812 20.515625 -1.9375 C 20.742188 -1 21.085938 -0.351562 21.546875 0 L 1.53125 0 C 1.9375 -0.351562 2.265625 -1 2.515625 -1.9375 C 2.773438 -2.882812 2.90625 -4.328125 2.90625 -6.265625 L 3.0625 -47.296875 C 3.0625 -49.234375 2.957031 -50.660156 2.75 -51.578125 C 2.539062 -52.492188 2.234375 -53.128906 1.828125 -53.484375 L 20.25 -53.484375 L 20.171875 -14.21875 L 34 -28.34375 C 35.175781 -29.570312 35.710938 -30.945312 35.609375 -32.46875 C 35.503906 -34 34.953125 -35.335938 33.953125 -36.484375 C 32.960938 -37.628906 31.628906 -38.203125 29.953125 -38.203125 L 43.9375 -38.203125 L 34.3125 -28.34375 Z M 48.96875 -5.65625 "/></g></g><g style="fill:#ffdf20;fill-opacity:1;"><g transform="translate(63.712422, 95.989344)"><path style="stroke:none" d="M 16.046875 -45.15625 C 13.703125 -45.15625 11.703125 -45.984375 10.046875 -47.640625 C 8.390625 -49.296875 7.5625 -51.296875 7.5625 -53.640625 C 7.5625 -55.316406 8.046875 -56.867188 9.015625 -58.296875 C 9.984375 -59.722656 11.257812 -60.769531 12.84375 -61.4375 C 14.414062 -62.09375 16.039062 -62.253906 17.71875 -61.921875 C 19.40625 -61.597656 20.859375 -60.820312 22.078125 -59.59375 C 23.253906 -58.375 24.019531 -56.9375 24.375 -55.28125 C 24.726562 -53.625 24.578125 -51.984375 23.921875 -50.359375 C 23.253906 -48.773438 22.207031 -47.507812 20.78125 -46.5625 C 19.351562 -45.625 17.773438 -45.15625 16.046875 -45.15625 Z M 7.5625 -42.25 C 7.5625 -42.25 7.90625 -41.957031 8.59375 -41.375 C 9.28125 -40.789062 10.347656 -40.253906 11.796875 -39.765625 C 13.253906 -39.285156 15.101562 -39.195312 17.34375 -39.5 C 19.894531 -39.800781 22.289062 -40.539062 24.53125 -41.71875 L 24.53125 -12.078125 C 24.53125 -7.585938 24.09375 -3.914062 23.21875 -1.0625 C 22.351562 1.78125 21.082031 4.019531 19.40625 5.65625 C 16.8125 8.144531 13.78125 9.390625 10.3125 9.390625 C 8.632812 9.441406 7.03125 9.125 5.5 8.4375 C 3.96875 7.75 2.644531 6.769531 1.53125 5.5 L 6.71875 -3.96875 C 6.71875 -3.96875 6.957031 -3.546875 7.4375 -2.703125 C 7.925781 -1.867188 8.613281 -0.878906 9.5 0.265625 C 10.394531 1.410156 11.429688 2.492188 12.609375 3.515625 C 13.015625 3.867188 13.613281 4.257812 14.40625 4.6875 C 15.195312 5.125 16 5.46875 16.8125 5.71875 C 17.625 5.976562 18.320312 5.976562 18.90625 5.71875 C 19.5 5.46875 19.796875 4.832031 19.796875 3.8125 C 19.796875 1.675781 19.257812 -0.332031 18.1875 -2.21875 C 17.113281 -4.101562 15.644531 -5.78125 13.78125 -7.25 C 11.925781 -8.726562 9.851562 -9.878906 7.5625 -10.703125 Z M 7.5625 -42.25 "/></g></g><g style="fill:#ffdf20;fill-opacity:1;"><g transform="translate(89.844336, 95.989344)"><path style="stroke:none" d="M 38.65625 -33.625 L 27.65625 -28.1875 C 27.707031 -28.957031 27.59375 -29.925781 27.3125 -31.09375 C 27.03125 -32.269531 26.582031 -33.289062 25.96875 -34.15625 C 25.363281 -35.019531 24.550781 -35.398438 23.53125 -35.296875 C 22.5625 -35.191406 21.757812 -34.78125 21.125 -34.0625 C 20.488281 -33.351562 20.171875 -32.519531 20.171875 -31.5625 L 20.171875 -6.34375 C 20.171875 -4.351562 20.285156 -2.882812 20.515625 -1.9375 C 20.742188 -1 21.085938 -0.351562 21.546875 0 L 1.53125 0 C 1.9375 -0.351562 2.265625 -1 2.515625 -1.9375 C 2.773438 -2.882812 2.90625 -4.351562 2.90625 -6.34375 L 2.90625 -42.5625 C 2.90625 -42.5625 3.25 -42.265625 3.9375 -41.671875 C 4.625 -41.085938 5.691406 -40.539062 7.140625 -40.03125 C 8.597656 -39.519531 10.5 -39.421875 12.84375 -39.734375 C 14.113281 -39.878906 15.367188 -40.15625 16.609375 -40.5625 C 17.859375 -40.976562 19.046875 -41.460938 20.171875 -42.015625 L 20.171875 -32.9375 C 20.273438 -33.34375 20.375 -33.757812 20.46875 -34.1875 C 20.570312 -34.625 20.726562 -35.019531 20.9375 -35.375 C 22.007812 -37.664062 23.445312 -39.320312 25.25 -40.34375 C 27.0625 -41.363281 28.929688 -41.769531 30.859375 -41.5625 C 32.796875 -41.363281 34.503906 -40.585938 35.984375 -39.234375 C 37.460938 -37.878906 38.351562 -36.007812 38.65625 -33.625 Z M 38.65625 -33.625 "/></g></g><g style="fill:#ffdf20;fill-opacity:1;"><g transform="translate(127.743193, 95.989344)"><path style="stroke:none" d="M 11.53125 -44.84375 C 9.144531 -44.84375 7.109375 -45.679688 5.421875 -47.359375 C 3.742188 -49.046875 2.90625 -51.085938 2.90625 -53.484375 C 2.90625 -55.066406 3.285156 -56.503906 4.046875 -57.796875 C 4.816406 -59.097656 5.863281 -60.144531 7.1875 -60.9375 C 8.507812 -61.726562 9.957031 -62.125 11.53125 -62.125 C 13.113281 -62.125 14.550781 -61.726562 15.84375 -60.9375 C 17.144531 -60.144531 18.191406 -59.097656 18.984375 -57.796875 C 19.773438 -56.503906 20.171875 -55.066406 20.171875 -53.484375 C 20.171875 -51.085938 19.332031 -49.050781 17.65625 -47.375 C 15.863281 -45.6875 13.820312 -44.84375 11.53125 -44.84375 Z M 20.171875 -6.34375 C 20.171875 -4.351562 20.285156 -2.882812 20.515625 -1.9375 C 20.742188 -1 21.085938 -0.351562 21.546875 0 L 1.53125 0 C 1.9375 -0.351562 2.265625 -1 2.515625 -1.9375 C 2.773438 -2.882812 2.90625 -4.351562 2.90625 -6.34375 L 2.90625 -42.5625 C 2.90625 -42.5625 3.25 -42.265625 3.9375 -41.671875 C 4.625 -41.085938 5.691406 -40.539062 7.140625 -40.03125 C 8.597656 -39.519531 10.5 -39.421875 12.84375 -39.734375 C 14.113281 -39.878906 15.367188 -40.15625 16.609375 -40.5625 C 17.859375 -40.976562 19.046875 -41.460938 20.171875 -42.015625 Z M 20.171875 -6.34375 "/></g></g><g style="fill:#ffdf20;fill-opacity:1;"><g transform="translate(150.818741, 95.989344)"><path style="stroke:none" d="M 35.375 -27.046875 C 36.59375 -26.535156 38.109375 -25.859375 39.921875 -25.015625 C 41.734375 -24.179688 43.503906 -23.148438 45.234375 -21.921875 C 46.960938 -20.703125 48.410156 -19.265625 49.578125 -17.609375 C 50.753906 -15.953125 51.34375 -14.082031 51.34375 -12 C 51.289062 -9.195312 50.257812 -6.738281 48.25 -4.625 C 46.238281 -2.507812 43.472656 -0.878906 39.953125 0.265625 C 36.441406 1.410156 32.367188 1.984375 27.734375 1.984375 C 24.316406 1.929688 21.296875 1.6875 18.671875 1.25 C 16.054688 0.820312 13.320312 0.28125 10.46875 -0.375 L 1.53125 -2.375 L 3.0625 -14.0625 C 3.0625 -14.0625 3.097656 -13.972656 3.171875 -13.796875 C 3.242188 -13.617188 3.332031 -13.320312 3.4375 -12.90625 C 4.457031 -10.207031 6.097656 -7.773438 8.359375 -5.609375 C 10.628906 -3.453125 13.226562 -1.722656 16.15625 -0.421875 C 19.082031 0.878906 22 1.554688 24.90625 1.609375 C 27.65625 1.609375 30.203125 1.46875 32.546875 1.1875 C 34.890625 0.90625 36.773438 0.421875 38.203125 -0.265625 C 39.628906 -0.953125 40.34375 -1.832031 40.34375 -2.90625 C 40.34375 -4.175781 39.664062 -5.296875 38.3125 -6.265625 C 36.96875 -7.234375 35.210938 -8.125 33.046875 -8.9375 C 30.878906 -9.75 28.472656 -10.5625 25.828125 -11.375 C 23.179688 -12.195312 20.554688 -13.117188 17.953125 -14.140625 C 16.523438 -14.691406 14.945312 -15.347656 13.21875 -16.109375 C 11.488281 -16.878906 9.820312 -17.847656 8.21875 -19.015625 C 6.613281 -20.191406 5.285156 -21.617188 4.234375 -23.296875 C 3.191406 -24.984375 2.671875 -27.023438 2.671875 -29.421875 C 2.671875 -30.742188 2.898438 -31.960938 3.359375 -33.078125 C 4.535156 -36.242188 7.082031 -38.765625 11 -40.640625 C 14.925781 -42.523438 19.738281 -43.46875 25.4375 -43.46875 L 43.25 -43.171875 L 44.09375 -31.328125 C 44.09375 -31.328125 43.863281 -31.71875 43.40625 -32.5 C 42.945312 -33.289062 42.234375 -34.269531 41.265625 -35.4375 C 40.296875 -36.613281 39.109375 -37.785156 37.703125 -38.953125 C 36.304688 -40.128906 34.664062 -41.125 32.78125 -41.9375 C 30.894531 -42.757812 28.753906 -43.195312 26.359375 -43.25 C 24.015625 -43.300781 21.835938 -43.097656 19.828125 -42.640625 C 17.816406 -42.179688 16.210938 -41.554688 15.015625 -40.765625 C 13.816406 -39.972656 13.21875 -39.066406 13.21875 -38.046875 C 13.21875 -37.023438 13.929688 -36.039062 15.359375 -35.09375 C 16.785156 -34.15625 18.628906 -33.253906 20.890625 -32.390625 C 23.160156 -31.523438 25.582031 -30.644531 28.15625 -29.75 C 30.726562 -28.863281 33.132812 -27.960938 35.375 -27.046875 Z M 35.375 -27.046875 "/></g></g><g style="fill:#ffdf20;fill-opacity:1;"><g transform="translate(199.796864, 95.989344)"><path style="stroke:none" d="M 30.640625 -41.640625 L 30.640625 -41.328125 L 23.15625 -41.328125 L 23.15625 -3.59375 C 23.15625 -2.675781 23.585938 -1.960938 24.453125 -1.453125 C 25.316406 -0.941406 26.054688 -1.019531 26.671875 -1.6875 C 24.421875 0.8125 21.59375 2.0625 18.1875 2.0625 C 16.039062 2.0625 14.023438 1.578125 12.140625 0.609375 C 10.265625 -0.359375 8.753906 -1.769531 7.609375 -3.625 C 6.460938 -5.488281 5.890625 -7.691406 5.890625 -10.234375 L 5.890625 -41.328125 L 1.53125 -41.328125 L 1.53125 -41.640625 L 5.890625 -41.640625 C 8.835938 -41.640625 11.316406 -41.96875 13.328125 -42.625 C 15.335938 -43.289062 16.992188 -44.109375 18.296875 -45.078125 C 19.597656 -46.046875 20.59375 -47.015625 21.28125 -47.984375 C 21.96875 -48.953125 22.453125 -49.765625 22.734375 -50.421875 C 23.015625 -51.085938 23.15625 -51.421875 23.15625 -51.421875 L 23.15625 -41.640625 Z M 30.640625 -41.640625 "/></g></g><g style="fill:#ffdf20;fill-opacity:1;"><g transform="translate(229.902007, 95.989344)"><path style="stroke:none" d="M 11.53125 -44.84375 C 9.144531 -44.84375 7.109375 -45.679688 5.421875 -47.359375 C 3.742188 -49.046875 2.90625 -51.085938 2.90625 -53.484375 C 2.90625 -55.066406 3.285156 -56.503906 4.046875 -57.796875 C 4.816406 -59.097656 5.863281 -60.144531 7.1875 -60.9375 C 8.507812 -61.726562 9.957031 -62.125 11.53125 -62.125 C 13.113281 -62.125 14.550781 -61.726562 15.84375 -60.9375 C 17.144531 -60.144531 18.191406 -59.097656 18.984375 -57.796875 C 19.773438 -56.503906 20.171875 -55.066406 20.171875 -53.484375 C 20.171875 -51.085938 19.332031 -49.050781 17.65625 -47.375 C 15.863281 -45.6875 13.820312 -44.84375 11.53125 -44.84375 Z M 20.171875 -6.34375 C 20.171875 -4.351562 20.285156 -2.882812 20.515625 -1.9375 C 20.742188 -1 21.085938 -0.351562 21.546875 0 L 1.53125 0 C 1.9375 -0.351562 2.265625 -1 2.515625 -1.9375 C 2.773438 -2.882812 2.90625 -4.351562 2.90625 -6.34375 L 2.90625 -42.5625 C 2.90625 -42.5625 3.25 -42.265625 3.9375 -41.671875 C 4.625 -41.085938 5.691406 -40.539062 7.140625 -40.03125 C 8.597656 -39.519531 10.5 -39.421875 12.84375 -39.734375 C 14.113281 -39.878906 15.367188 -40.15625 16.609375 -40.5625 C 17.859375 -40.976562 19.046875 -41.460938 20.171875 -42.015625 Z M 20.171875 -6.34375 "/></g></g><g style="fill:#ffdf20;fill-opacity:1;"><g transform="translate(252.977556, 95.989344)"><path style="stroke:none" d="M 30.9375 0 C 31.394531 -0.351562 31.738281 -1 31.96875 -1.9375 C 32.195312 -2.882812 32.3125 -4.351562 32.3125 -6.34375 L 32.3125 -33.234375 C 32.3125 -34.609375 31.863281 -35.585938 30.96875 -36.171875 C 30.082031 -36.765625 29.03125 -36.96875 27.8125 -36.78125 C 26.59375 -36.601562 25.484375 -36.109375 24.484375 -35.296875 C 23.492188 -34.484375 22.894531 -33.363281 22.6875 -31.9375 C 22.59375 -31.125 22.503906 -30.304688 22.421875 -29.484375 C 22.347656 -28.671875 22.3125 -27.859375 22.3125 -27.046875 L 22.3125 -6.34375 C 22.3125 -4.351562 22.4375 -2.882812 22.6875 -1.9375 C 22.945312 -1 23.28125 -0.351562 23.6875 0 L 3.671875 0 C 4.128906 -0.351562 4.472656 -1 4.703125 -1.9375 C 4.929688 -2.882812 5.046875 -4.351562 5.046875 -6.34375 L 5.046875 -37.828125 C 5.046875 -38.742188 4.625 -39.453125 3.78125 -39.953125 C 2.9375 -40.460938 2.1875 -40.390625 1.53125 -39.734375 C 3.769531 -42.222656 6.597656 -43.46875 10.015625 -43.46875 C 12.148438 -43.46875 14.144531 -42.992188 16 -42.046875 C 17.863281 -41.109375 19.367188 -39.75 20.515625 -37.96875 C 21.660156 -36.1875 22.257812 -34.050781 22.3125 -31.5625 L 22.546875 -33.15625 C 23.003906 -36.269531 24.476562 -38.742188 26.96875 -40.578125 C 29.3125 -42.359375 31.796875 -43.3125 34.421875 -43.4375 C 37.046875 -43.5625 39.503906 -43.050781 41.796875 -41.90625 C 44.085938 -40.757812 45.957031 -39.09375 47.40625 -36.90625 C 48.863281 -34.71875 49.59375 -32.171875 49.59375 -29.265625 L 49.59375 -6.34375 C 49.59375 -4.351562 49.71875 -2.882812 49.96875 -1.9375 C 50.226562 -1 50.5625 -0.351562 50.96875 0 Z M 30.9375 0 "/></g></g><g style="fill:#ffdf20;fill-opacity:1;"><g transform="translate(304.324441, 95.989344)"><path style="stroke:none" d="M 44.546875 -13.453125 C 45.359375 -14.265625 46.019531 -15.101562 46.53125 -15.96875 C 45.207031 -12.195312 42.992188 -8.988281 39.890625 -6.34375 C 37.546875 -4.351562 34.945312 -2.8125 32.09375 -1.71875 C 29.238281 -0.625 26.285156 -0.0507812 23.234375 0 C 20.222656 0 17.40625 -0.554688 14.78125 -1.671875 C 12.15625 -2.796875 9.847656 -4.351562 7.859375 -6.34375 C 5.878906 -8.332031 4.328125 -10.632812 3.203125 -13.25 C 2.085938 -15.875 1.53125 -18.691406 1.53125 -21.703125 C 1.53125 -24.703125 2.085938 -27.523438 3.203125 -30.171875 C 4.328125 -32.828125 5.878906 -35.144531 7.859375 -37.125 C 9.847656 -39.113281 12.15625 -40.664062 14.78125 -41.78125 C 17.40625 -42.90625 20.222656 -43.46875 23.234375 -43.46875 L 25.21875 -43.46875 C 28.570312 -43.46875 31.710938 -42.742188 34.640625 -41.296875 C 37.578125 -39.847656 40.078125 -37.863281 42.140625 -35.34375 C 44.203125 -32.820312 45.613281 -29.90625 46.375 -26.59375 L 18.265625 -26.59375 L 18.265625 -25.140625 C 18.265625 -22.492188 18.847656 -20.035156 20.015625 -17.765625 C 21.191406 -15.492188 22.8125 -13.59375 24.875 -12.0625 C 26.9375 -10.539062 29.265625 -9.601562 31.859375 -9.25 C 34.203125 -8.882812 36.476562 -9.082031 38.6875 -9.84375 C 40.90625 -10.613281 42.859375 -11.816406 44.546875 -13.453125 Z M 18.265625 -37.515625 L 18.265625 -26.890625 L 29.640625 -26.890625 L 29.640625 -37.515625 C 29.640625 -39.097656 29.09375 -40.4375 28 -41.53125 C 26.90625 -42.625 25.566406 -43.171875 23.984375 -43.171875 C 22.410156 -43.171875 21.0625 -42.625 19.9375 -41.53125 C 18.820312 -40.4375 18.265625 -39.097656 18.265625 -37.515625 Z M 18.265625 -37.515625 "/></g></g><g style="fill:#ffdf20;fill-opacity:1;"><g transform="translate(352.385742, 95.989344)"><path style="stroke:none" d="M 11.921875 -5.265625 C 11.921875 -3.890625 11.4375 -2.707031 10.46875 -1.71875 C 9.5 -0.726562 8.300781 -0.234375 6.875 -0.234375 C 5.445312 -0.234375 4.234375 -0.726562 3.234375 -1.71875 C 2.242188 -2.707031 1.75 -3.890625 1.75 -5.265625 C 1.75 -6.691406 2.242188 -7.898438 3.234375 -8.890625 C 4.234375 -9.890625 5.445312 -10.390625 6.875 -10.390625 C 8.300781 -10.390625 9.5 -9.890625 10.46875 -8.890625 C 11.4375 -7.898438 11.921875 -6.691406 11.921875 -5.265625 Z M 11.921875 -5.265625 "/></g></g><g style="fill:#ffdf20;fill-opacity:1;"><g transform="translate(366.292423, 95.989344)"><path style="stroke:none" d=""/></g></g></g></svg>